<?xml version="1.0" standalone="no"?><!DOCTYPE svg PUBLIC "-//W3C//DTD SVG 1.1//EN" "http://www.w3.org/Graphics/SVG/1.1/DTD/svg11.dtd"><svg t="1695981285600" class="icon" viewBox="0 0 1024 1024" version="1.1" xmlns="http://www.w3.org/2000/svg" p-id="4479" xmlns:xlink="http://www.w3.org/1999/xlink" width="200" height="200"><path d="M736 535.416V400h-160v135.416a32 32 0 0 1-23.754 30.918L407.264 605A96 96 0 0 0 336 697.754V976h640V697.754a96 96 0 0 0-71.264-92.754l-144.982-38.662A32 32 0 0 1 736 535.416z" fill="#FEC9A3" p-id="4480"></path><path d="M736 503.718V448h-160v55.718a143.926 143.926 0 0 0 160 0z" fill="#FEB784" p-id="4481"></path><path d="M904.736 605L765.4 567.838a111.956 111.956 0 0 1-218.8 0L407.264 605A96 96 0 0 0 336 697.754V864h128v112h384v-176h128v-102.246a96 96 0 0 0-71.264-92.754z" fill="#F35244" p-id="4482"></path><path d="M904.736 605l-20.34-5.424C774.276 807.212 625.624 920 527.344 976H848v-176h128v-102.246a96 96 0 0 0-71.264-92.754z" fill="#EA4A3B" p-id="4483"></path><path d="M800 224v128a144 144 0 1 1-288 0v-128a144.012 144.012 0 0 1 144-144 146.582 146.582 0 0 1 16.32 0.92A144.03 144.03 0 0 1 800 224z" fill="#FEC9A3" p-id="4484"></path><path d="M800 224v128a144.104 144.104 0 0 1-181.66 139.02A144.064 144.064 0 0 0 724.66 352V192a143.55 143.55 0 0 0-42.18-101.82q-4.86-4.86-10.16-9.26A144.03 144.03 0 0 1 800 224z" fill="#FEC093" p-id="4485"></path><path d="M560 128h176v32h-176z" fill="#FEC093" p-id="4486"></path><path d="M512 240V176c0-53.02 35.818-96 80-96l-2.816 10.136C573.5 146.6 547.074 197.912 512 240zM800 240V129.97A51.508 51.508 0 0 0 736 80v48s28.926 69.912 64 112z" fill="#95573A" p-id="4487"></path><path d="M736 128h-144a80 80 0 0 1-80-80h146.746A109.252 109.252 0 0 1 736 80z" fill="#82462A" p-id="4488"></path><path d="M512 240h-16a48 48 0 0 0 0 96h16zM816 240h-16v96h16a48 48 0 0 0 0-96z" fill="#FEB784" p-id="4489"></path><path d="M448 720h32v256h-32z" fill="#DE4132" p-id="4490"></path><path d="M112 912h560v64H112z" fill="#BFBFBD" p-id="4491"></path><path d="M483.332 976H141.374a36.62 36.62 0 0 1-35.746-28.674L48.686 691.09a28.866 28.866 0 0 1-0.686-6.256A28.834 28.834 0 0 1 76.834 656h357.092a36.684 36.684 0 0 1 35.972 29.49L519.24 932.2a36.618 36.618 0 0 1-35.908 43.8z" fill="#E0E0DE" p-id="4492"></path><path d="M476.044 716.224c-114.36 143.934-269.22 204.124-370.878 229.026l0.462 2.076A36.616 36.616 0 0 0 141.374 976h341.96a36.618 36.618 0 0 0 35.906-43.8z" fill="#D6D6D4" p-id="4493"></path><path d="M251.141841 837.723086a33.442 30.62 43.7 1 0 42.309639-44.274508 33.442 30.62 43.7 1 0-42.309639 44.274508Z" fill="#EBEBE9" p-id="4494"></path><path d="M908.862 589.542l-144.978-38.662a16.022 16.022 0 0 1-11.884-15.46v-55.488A159.6 159.6 0 0 0 816 352a64 64 0 0 0 0-128V129.968a67.486 67.486 0 0 0-74.938-67.082A124.298 124.298 0 0 0 658.746 32H512a16 16 0 0 0-16 16 95.508 95.508 0 0 0 20.35 59A122.924 122.924 0 0 0 496 176v48a64 64 0 1 0 0 128 159.586 159.586 0 0 0 64 127.934v55.486a16.024 16.024 0 0 1-11.882 15.46l-144.98 38.66A111.97 111.97 0 0 0 336.082 640H76.834a44.832 44.832 0 0 0-43.766 54.56L90 950.8c1.224 5.502 13.326 39.2 51.326 41.2H976a16 16 0 0 0 16-16V697.76a112.12 112.12 0 0 0-83.138-108.218zM592 535.42v-36.788a159.896 159.896 0 0 0 128 0v36.788a48.056 48.056 0 0 0 25.752 42.488 95.912 95.912 0 0 1-179.504 0A48.054 48.054 0 0 0 592 535.42zM848 288a32.038 32.038 0 0 1-32 32v-64a32.038 32.038 0 0 1 32 32z m-64-158.032v58.302a631.502 631.502 0 0 1-32-63.536v-30.12a35.56 35.56 0 0 1 32 35.354zM658.746 64A92.568 92.568 0 0 1 720 86.932V112h-128a64.116 64.116 0 0 1-61.976-48zM528 176a93.588 93.588 0 0 1 12.384-47.12 95.766 95.766 0 0 0 15.4 8A379.87 379.87 0 0 1 528 190.642z m-64 112a32.038 32.038 0 0 1 32-32v64a32.038 32.038 0 0 1-32-32z m64 64v-106.304a401.646 401.646 0 0 0 59.522-101.8 95.04 95.04 0 0 0 4.478 0.114h133.5c9.074 20.332 31.536 67.556 58.5 101.664V352a128 128 0 0 1-256 0zM141.374 960a20.492 20.492 0 0 1-20.126-16.144L64.306 687.624A12.838 12.838 0 0 1 76.834 672h357.092a20.738 20.738 0 0 1 20.282 16.628l49.342 246.71A20.616 20.616 0 0 1 483.334 960zM656 960h-124.248a52.444 52.444 0 0 0 3.178-30.938l-0.212-1.062H656z m32 0v-48a16 16 0 0 0-16-16h-143.684l-42.73-213.646A52.822 52.822 0 0 0 433.926 640h-57.242a79.93 79.93 0 0 1 34.698-19.542l124.22-33.124a127.938 127.938 0 0 0 240.8 0l124.218 33.126A80.088 80.088 0 0 1 960 697.76V784h-96v-48h-32v224z m176 0v-144h96v144z" p-id="4495"></path><path d="M608 377.12h33.868a230.074 230.074 0 0 0 66.77-9.8l-9.276-30.624a198.2 198.2 0 0 1-57.494 8.432H608zM584 288a24 24 0 1 0-24-24 24.026 24.026 0 0 0 24 24zM728 288a24 24 0 1 0-24-24 24.026 24.026 0 0 0 24 24zM269.176 768a44.824 44.824 0 0 0-45.114 49.4 51.366 51.366 0 0 0 50.762 46.6 44.824 44.824 0 0 0 45.114-49.4 51.366 51.366 0 0 0-50.762-46.6z m15.6 59.868a13.268 13.268 0 0 1-9.96 4.132 19.638 19.638 0 0 1-18.886-17.4 13.496 13.496 0 0 1 3.278-10.462 13.268 13.268 0 0 1 9.96-4.132 19.638 19.638 0 0 1 18.886 17.4 13.496 13.496 0 0 1-3.27 10.462z" p-id="4496"></path></svg>